<?xml version="1.0" encoding="utf-8"?>
<!-- Generator: Adobe Illustrator 25.3.1, SVG Export Plug-In . SVG Version: 6.00 Build 0)  -->
<svg version="1.1" id="Layer_1" xmlns="http://www.w3.org/2000/svg" xmlns:xlink="http://www.w3.org/1999/xlink" x="0px" y="0px"
	 viewBox="0 0 98.05 14.7" style="enable-background:new 0 0 98.05 14.7;" xml:space="preserve">
<style type="text/css">
	.st0{fill:#FCB121;}
	.st1{fill:#D6D6D6;}
</style>
<g>
	<path id="_01_1_" class="st0" d="M14.71,5.62L9.84,4.54L7.35,0L4.87,4.54L0,5.62L3.34,9.5l-0.53,5.2l4.55-2.14l4.55,2.14l-0.53-5.2
		L14.71,5.62z"/>
	<path id="_02_1_" class="st0" d="M35.54,5.62l-4.87-1.08L28.19,0l-2.48,4.54l-4.87,1.08l3.34,3.89l-0.53,5.2l4.55-2.14l4.55,2.14
		l-0.53-5.2L35.54,5.62z"/>
	<path id="_03_1_" class="st1" d="M56.38,5.62l-4.87-1.08L49.03,0l-2.48,4.54l-4.87,1.08l3.34,3.89l-0.53,5.2l4.54-2.14l4.55,2.14
		l-0.53-5.2L56.38,5.62z"/>
	<path id="_04_1_" class="st1" d="M77.21,5.62l-4.87-1.08L69.86,0l-2.48,4.54l-4.87,1.08l3.34,3.89l-0.53,5.2l4.55-2.14l4.55,2.14
		l-0.53-5.2L77.21,5.62z"/>
	<path id="_05_1_" class="st1" d="M98.05,5.62l-4.87-1.08L90.7,0l-2.48,4.54l-4.87,1.08l3.34,3.89l-0.53,5.2l4.55-2.14l4.55,2.14
		l-0.53-5.2L98.05,5.62z"/>
</g>
</svg>
